<svg width="24" height="22" viewBox="0 0 24 22" fill="none" xmlns="http://www.w3.org/2000/svg">
<path d="M12.8994 6.60451L13.862 0.825043C13.9411 0.350018 14.3537 0 14.837 0C15.1495 0 15.4412 0.145841 15.6287 0.395854L16.3329 1.3334H18.5039C19.0331 1.3334 19.5414 1.54591 19.9165 1.92093L20.6665 2.66681H22.9999C23.5541 2.66681 24 3.11266 24 3.66686V4.66691C24 6.50868 22.5083 8.00042 20.6665 8.00042H19.3331H18.6664H17.7788L17.5663 9.27132L12.8994 6.60451ZM17.333 10.6714V20.0011C17.333 20.7386 16.7371 21.3345 15.9996 21.3345H14.6662C13.9286 21.3345 13.3328 20.7386 13.3328 20.0011V15.2008C12.3327 15.7133 11.1993 16.0008 9.99926 16.0008C8.7992 16.0008 7.66581 15.7133 6.66575 15.2008V20.0011C6.66575 20.7386 6.06989 21.3345 5.33235 21.3345H3.99895C3.26141 21.3345 2.66554 20.7386 2.66554 20.0011V10.4089C1.46548 9.95469 0.523764 8.93797 0.198747 7.6379L0.0404049 6.99204C-0.138771 6.2795 0.294585 5.55446 1.01129 5.37528C1.72799 5.19611 2.44887 5.62946 2.62804 6.34617L2.79055 6.99204C2.93639 7.58373 3.46975 8.00042 4.08228 8.00042H5.33235H5.99905H12.6577L17.333 10.6714ZM19.3331 3.33351C19.3331 3.15669 19.2628 2.98711 19.1378 2.86208C19.0128 2.73705 18.8432 2.66681 18.6664 2.66681C18.4896 2.66681 18.32 2.73705 18.195 2.86208C18.0699 2.98711 17.9997 3.15669 17.9997 3.33351C17.9997 3.51033 18.0699 3.67991 18.195 3.80494C18.32 3.92997 18.4896 4.00021 18.6664 4.00021C18.8432 4.00021 19.0128 3.92997 19.1378 3.80494C19.2628 3.67991 19.3331 3.51033 19.3331 3.33351Z" fill="black"/>
</svg>
